<mxfile host="app.diagrams.net" modified="2024-07-23T19:45:08.209Z" agent="Mozilla/5.0 (Windows NT 10.0; Win64; x64) AppleWebKit/537.36 (KHTML, like Gecko) Chrome/122.0.0.0 Safari/537.36" etag="spQU782Sf-OTsH6uFL6c" version="24.7.1" type="google">
  <diagram name="Page-1" id="74e2e168-ea6b-b213-b513-2b3c1d86103e">
    <mxGraphModel grid="1" page="1" gridSize="10" guides="1" tooltips="1" connect="1" arrows="1" fold="1" pageScale="1" pageWidth="1100" pageHeight="850" background="none" math="0" shadow="0">
      <root>
        <mxCell id="0" />
        <mxCell id="1" parent="0" />
        <mxCell id="HkAPY2OzGjloJBx6eBI7-11" style="edgeStyle=orthogonalEdgeStyle;rounded=0;orthogonalLoop=1;jettySize=auto;html=1;exitX=0.5;exitY=1;exitDx=0;exitDy=0;" edge="1" parent="1" source="HkAPY2OzGjloJBx6eBI7-1" target="HkAPY2OzGjloJBx6eBI7-2">
          <mxGeometry relative="1" as="geometry" />
        </mxCell>
        <mxCell id="HkAPY2OzGjloJBx6eBI7-1" value="Load Dataset&lt;div&gt;(Read CSV)&lt;/div&gt;" style="rounded=0;whiteSpace=wrap;html=1;" vertex="1" parent="1">
          <mxGeometry x="360" y="40" width="120" height="60" as="geometry" />
        </mxCell>
        <mxCell id="HkAPY2OzGjloJBx6eBI7-12" style="edgeStyle=orthogonalEdgeStyle;rounded=0;orthogonalLoop=1;jettySize=auto;html=1;exitX=0.5;exitY=1;exitDx=0;exitDy=0;entryX=0.5;entryY=0;entryDx=0;entryDy=0;" edge="1" parent="1" source="HkAPY2OzGjloJBx6eBI7-2" target="HkAPY2OzGjloJBx6eBI7-3">
          <mxGeometry relative="1" as="geometry" />
        </mxCell>
        <mxCell id="HkAPY2OzGjloJBx6eBI7-2" value="Preprocess Text&lt;div&gt;(Lowercase)&lt;/div&gt;" style="rounded=0;whiteSpace=wrap;html=1;" vertex="1" parent="1">
          <mxGeometry x="360" y="120" width="120" height="60" as="geometry" />
        </mxCell>
        <mxCell id="HkAPY2OzGjloJBx6eBI7-13" style="edgeStyle=orthogonalEdgeStyle;rounded=0;orthogonalLoop=1;jettySize=auto;html=1;exitX=0.5;exitY=1;exitDx=0;exitDy=0;entryX=0.5;entryY=0;entryDx=0;entryDy=0;" edge="1" parent="1" source="HkAPY2OzGjloJBx6eBI7-3" target="HkAPY2OzGjloJBx6eBI7-4">
          <mxGeometry relative="1" as="geometry" />
        </mxCell>
        <mxCell id="HkAPY2OzGjloJBx6eBI7-3" value="Split Data&lt;div&gt;(Train/Test Split)&lt;/div&gt;" style="rounded=0;whiteSpace=wrap;html=1;" vertex="1" parent="1">
          <mxGeometry x="360" y="200" width="120" height="60" as="geometry" />
        </mxCell>
        <mxCell id="HkAPY2OzGjloJBx6eBI7-14" style="edgeStyle=orthogonalEdgeStyle;rounded=0;orthogonalLoop=1;jettySize=auto;html=1;exitX=0.5;exitY=1;exitDx=0;exitDy=0;entryX=0.5;entryY=0;entryDx=0;entryDy=0;" edge="1" parent="1" source="HkAPY2OzGjloJBx6eBI7-4" target="HkAPY2OzGjloJBx6eBI7-5">
          <mxGeometry relative="1" as="geometry" />
        </mxCell>
        <mxCell id="HkAPY2OzGjloJBx6eBI7-4" value="Tokenize Question&lt;div&gt;(Fit Tokenizer)&lt;/div&gt;" style="rounded=0;whiteSpace=wrap;html=1;" vertex="1" parent="1">
          <mxGeometry x="360" y="280" width="120" height="60" as="geometry" />
        </mxCell>
        <mxCell id="HkAPY2OzGjloJBx6eBI7-15" style="edgeStyle=orthogonalEdgeStyle;rounded=0;orthogonalLoop=1;jettySize=auto;html=1;exitX=0.5;exitY=1;exitDx=0;exitDy=0;entryX=0.5;entryY=0;entryDx=0;entryDy=0;" edge="1" parent="1" source="HkAPY2OzGjloJBx6eBI7-5" target="HkAPY2OzGjloJBx6eBI7-6">
          <mxGeometry relative="1" as="geometry" />
        </mxCell>
        <mxCell id="HkAPY2OzGjloJBx6eBI7-5" value="Convert to Sequences" style="rounded=0;whiteSpace=wrap;html=1;" vertex="1" parent="1">
          <mxGeometry x="360" y="360" width="120" height="60" as="geometry" />
        </mxCell>
        <mxCell id="HkAPY2OzGjloJBx6eBI7-16" style="edgeStyle=orthogonalEdgeStyle;rounded=0;orthogonalLoop=1;jettySize=auto;html=1;exitX=0.5;exitY=1;exitDx=0;exitDy=0;entryX=0.5;entryY=0;entryDx=0;entryDy=0;" edge="1" parent="1" source="HkAPY2OzGjloJBx6eBI7-6" target="HkAPY2OzGjloJBx6eBI7-7">
          <mxGeometry relative="1" as="geometry" />
        </mxCell>
        <mxCell id="HkAPY2OzGjloJBx6eBI7-6" value="PAD Sequences" style="rounded=0;whiteSpace=wrap;html=1;" vertex="1" parent="1">
          <mxGeometry x="360" y="440" width="120" height="60" as="geometry" />
        </mxCell>
        <mxCell id="HkAPY2OzGjloJBx6eBI7-17" style="edgeStyle=orthogonalEdgeStyle;rounded=0;orthogonalLoop=1;jettySize=auto;html=1;exitX=0.5;exitY=1;exitDx=0;exitDy=0;entryX=0.5;entryY=0;entryDx=0;entryDy=0;" edge="1" parent="1" source="HkAPY2OzGjloJBx6eBI7-7" target="HkAPY2OzGjloJBx6eBI7-8">
          <mxGeometry relative="1" as="geometry" />
        </mxCell>
        <mxCell id="HkAPY2OzGjloJBx6eBI7-7" value="Define Model" style="rounded=0;whiteSpace=wrap;html=1;" vertex="1" parent="1">
          <mxGeometry x="360" y="520" width="120" height="60" as="geometry" />
        </mxCell>
        <mxCell id="HkAPY2OzGjloJBx6eBI7-18" style="edgeStyle=orthogonalEdgeStyle;rounded=0;orthogonalLoop=1;jettySize=auto;html=1;exitX=0.5;exitY=1;exitDx=0;exitDy=0;entryX=0.5;entryY=0;entryDx=0;entryDy=0;" edge="1" parent="1" source="HkAPY2OzGjloJBx6eBI7-8" target="HkAPY2OzGjloJBx6eBI7-9">
          <mxGeometry relative="1" as="geometry" />
        </mxCell>
        <mxCell id="HkAPY2OzGjloJBx6eBI7-8" value="Compile Model" style="rounded=0;whiteSpace=wrap;html=1;" vertex="1" parent="1">
          <mxGeometry x="360" y="600" width="120" height="60" as="geometry" />
        </mxCell>
        <mxCell id="HkAPY2OzGjloJBx6eBI7-9" value="Train Model" style="rounded=0;whiteSpace=wrap;html=1;" vertex="1" parent="1">
          <mxGeometry x="360" y="680" width="120" height="60" as="geometry" />
        </mxCell>
        <mxCell id="HkAPY2OzGjloJBx6eBI7-10" value="Save Model" style="rounded=0;whiteSpace=wrap;html=1;" vertex="1" parent="1">
          <mxGeometry x="360" y="760" width="120" height="60" as="geometry" />
        </mxCell>
      </root>
    </mxGraphModel>
  </diagram>
</mxfile>
